<?xml version="1.0" encoding="utf-8"?>
<!-- Generator: Adobe Illustrator 19.2.1, SVG Export Plug-In . SVG Version: 6.00 Build 0)  -->
<svg version="1.1" id="Layer_2" xmlns="http://www.w3.org/2000/svg" xmlns:xlink="http://www.w3.org/1999/xlink" x="0px" y="0px"
	 viewBox="0 0 80.3 80.3" style="enable-background:new 0 0 80.3 80.3;" xml:space="preserve">
<style type="text/css">
	.st0{fill:#EB6A5C;}
	.st1{fill:#552F2F;}
	.st2{fill:#55AB99;}
	.st3{fill:#2F4555;}
	.st4{fill:#FFFFFF;}
	.st5{fill:#ED6B5A;}
	.st6{fill:#0C2C48;}
	.st7{fill:#F1CC4B;}
	.st8{clip-path:url(#SVGID_2_);}
	.st9{clip-path:url(#SVGID_2_);fill:#F6A09C;}
	.st10{fill:#50646F;}
	.st11{fill:#FCA886;}
	.st12{fill:#EDAB7E;}
	.st13{fill:#332319;}
	.st14{fill:#E07E45;}
	.st15{fill:#FF8F8F;}
	.st16{fill:#A6D1D9;}
	.st17{fill:#628185;}
	.st18{fill:#BABABA;}
	.st19{fill:#698391;}
	.st20{opacity:0.41;fill:#FFFFFF;}
	.st21{fill:#F6A09C;}
	.st22{fill:#FFF3C9;}
	.st23{fill:#2384AB;}
	.st24{fill:#BABFC5;}
	.st25{clip-path:url(#SVGID_4_);}
	.st26{fill:#6EB9E0;}
	.st27{fill:#F8A06D;}
	.st28{fill:#A3B9C4;}
	.st29{fill:#3B4A52;}
	.st30{clip-path:url(#SVGID_6_);}
	.st31{clip-path:url(#SVGID_8_);fill:#F6A09C;}
	.st32{opacity:0.21;fill:#FFFFFF;}
	.st33{clip-path:url(#SVGID_10_);fill:#F6A09C;}
	.st34{clip-path:url(#SVGID_12_);}
	.st35{fill:#FFD3B5;}
	.st36{fill:#BFD9E6;}
	.st37{fill:#798287;}
	.st38{fill:#A4A8AD;}
	.st39{fill:#FFD6BA;}
	.st40{fill:none;stroke:#0C2C48;stroke-width:1.4;stroke-miterlimit:10;}
</style>
<g>
	<circle class="st7" cx="40.2" cy="40.2" r="40.2"/>
	<g>
		<g>
			<g>
				<g>
					<g>
						<path class="st10" d="M67.8,56.2c0,0.7-0.5,1.2-1.2,1.2H13.8c-0.7,0-1.2-0.5-1.2-1.2V17.4c0-0.7,0.5-1.2,1.2-1.2h52.8
							c0.7,0,1.2,0.5,1.2,1.2V56.2z"/>
						<rect x="29.8" y="56.3" class="st18" width="20.7" height="7"/>
					</g>
				</g>
				<rect x="15.5" y="18.6" class="st19" width="49.2" height="30.5"/>
				<path class="st4" d="M12.6,48.1v8.1c0,0.7,0.5,1.2,1.2,1.2h52.8c0.7,0,1.2-0.5,1.2-1.2v-8.1H12.6z"/>
				<path class="st4" d="M55.7,68.1v-2.2c0-1.7-1.3-3-3-3h-25c-1.7,0-3,1.3-3,3v2.2H55.7z"/>
			</g>
			<circle class="st6" cx="40.2" cy="52.5" r="1.5"/>
		</g>
		<g>
			<path class="st20" d="M55.1,22.5v-0.6h-5.8v-1.8h-0.6v1.8h-6.4v-1.8h-0.6v1.8h-6.4v-1.8h-0.6v1.8h-6.4v-1.8h-0.6v1.8H22v0.6h5.8
				v5.4H22v0.6h5.8v5.4H22v0.6h5.8v5.4H22v0.6h5.8v3.1h0.6v-3.1h6.4v3.1h0.6v-3.1h6.4v3.1h0.6v-3.1h6.4v3.1h0.6v-3.1h5.8v-0.6h-5.8
				v-5.4h5.8v-0.6h-5.8v-5.4h5.8v-0.6h-5.8v-5.4H55.1z M41.7,22.5v5.4h-6.4v-5.4H41.7z M41.7,28.4v5.4h-6.4v-5.4H41.7z M28.3,22.5
				h6.4v5.4h-6.4V22.5z M28.3,28.4h6.4v5.4h-6.4V28.4z M28.3,39.7v-5.4h6.4v5.4H28.3z M35.3,39.7v-5.4h6.4v5.4H35.3z M48.7,39.7
				h-6.4v-5.4h6.4V39.7z M48.7,33.8h-6.4v-5.4h6.4V33.8z M48.7,27.8h-6.4v-5.4h6.4V27.8z"/>
			<g>
				<polygon class="st6" points="51.8,25.7 52.9,26.9 47.7,32.4 42.1,28.6 36.4,35.9 29.2,28.6 26,36.9 22.1,31.6 20.8,32.6 
					26.5,40.3 29.8,31.6 36.6,38.5 42.5,30.9 47.9,34.6 54.1,28.1 55.6,29.6 56,24.6 				"/>
				<path class="st19" d="M26.6,41l-6.3-8.4l1.9-1.5l3.7,5.1l3.2-8.3l7.3,7.5l5.7-7.3l5.6,3.8l4.8-5l-1.4-1.4l5.3-1.5l-0.5,6.3
					l-1.8-1.8l-6.2,6.4l-5.4-3.7l-6,7.7l-6.6-6.7L26.6,41z M21.3,32.7l5.1,6.8l3.3-8.5l6.8,7l5.9-7.5l5.4,3.7l6.3-6.5l1.2,1.2
					l0.3-3.7l-3.1,0.9l1,1l-5.7,5.9l-5.5-3.8l-5.8,7.4l-7.1-7.2l-3.3,8.5l-4-5.6L21.3,32.7z"/>
			</g>
			<g>
				<g>
					<rect x="19.9" y="22" class="st6" width="0.9" height="24.4"/>
				</g>
				<g>
					<rect x="18.2" y="43.6" class="st6" width="42.7" height="0.9"/>
				</g>
				<g>
					<polygon class="st6" points="22.2,24.9 20.4,21.9 18.6,24.9 17.9,24.5 20.4,20.3 22.9,24.5 					"/>
				</g>
				<g>
					<polygon class="st6" points="58.3,46.6 57.8,45.8 60.8,44.1 57.8,42.3 58.3,41.5 62.5,44.1 					"/>
				</g>
			</g>
		</g>
	</g>
</g>
</svg>
